<?xml version="1.0" standalone="no"?><!DOCTYPE svg PUBLIC "-//W3C//DTD SVG 1.1//EN" "http://www.w3.org/Graphics/SVG/1.1/DTD/svg11.dtd"><svg t="1752212848532" class="icon" viewBox="0 0 1024 1024" version="1.1" xmlns="http://www.w3.org/2000/svg" p-id="5657" xmlns:xlink="http://www.w3.org/1999/xlink" width="64" height="64"><path d="M2.547264 510.965811c0 280.199005 229.253731 509.452736 509.452736 509.452736s509.452736-229.253731 509.452736-509.452736-229.253731-509.452736-509.452736-509.452736-509.452736 229.253731-509.452736 509.452736z" fill="#2AC49D" p-id="5658"></path><path d="M257.273632 472.756856c0 140.099502 114.626866 254.726368 254.726368 254.726368s254.726368-114.626866 254.726368-254.726368-114.626866-254.726368-254.726368-254.726368-254.726368 114.626866-254.726368 254.726368z m135.855761 292.935323h237.741214c16.985154 0 25.472637 12.736318 25.472637 25.472637 0 16.98006-12.736318 25.472637-25.472637 25.472637H393.129393c-16.985154 0-25.472637-12.736318-25.472637-25.472637s12.736318-25.472637 25.472637-25.472637z" fill="#FFFFFF" p-id="5659"></path><path d="M486.527363 655.309055h55.189015v144.348338H486.527363z" fill="#FFFFFF" p-id="5660"></path><path d="M512 621.348935c80.661652 0 144.343244-63.681592 144.343244-144.348338 0-80.661652-63.681592-148.586985-144.343244-148.586985-80.661652 0-144.343244 63.681592-144.343244 144.343244 0 80.661652 63.681592 148.59208 144.343244 148.592079z" fill="#13BE93" p-id="5661"></path><path d="M439.825831 472.756856c0 38.208955 33.965214 72.174169 72.174169 72.174169s72.174169-33.965214 72.174169-72.174169S550.208955 400.582687 512 400.582687s-72.174169 33.965214-72.174169 72.174169z" fill="#FFFFFF" p-id="5662"></path><path d="M439.825831 400.582687c0 21.228896 16.985154 38.208955 38.208955 38.208955 21.228896 0 33.965214-16.98006 33.965214-38.208955 0-21.223801-16.98006-38.208955-38.208955-38.208956s-33.965214 21.228896-33.965214 38.208956z" fill="#13BE93" p-id="5663"></path></svg>