<?xml version="1.0" standalone="no"?><!DOCTYPE svg PUBLIC "-//W3C//DTD SVG 1.1//EN" "http://www.w3.org/Graphics/SVG/1.1/DTD/svg11.dtd"><svg t="1752742091862" class="icon" viewBox="0 0 1024 1024" version="1.1" xmlns="http://www.w3.org/2000/svg" p-id="10613" xmlns:xlink="http://www.w3.org/1999/xlink" width="1024" height="1024"><path d="M213.333333 618.666667c0-21.845333 0-32.768 2.730667-41.642667 6.016-19.626667 21.333333-34.944 40.96-40.96 8.874667-2.730667 19.797333-2.730667 41.642667-2.730667s32.768 0 41.642666 2.730667c19.626667 6.016 34.944 21.333333 40.96 40.96 2.730667 8.874667 2.730667 19.797333 2.730667 41.642667s0 32.768-2.730667 41.642666c-6.016 19.626667-21.333333 34.944-40.96 40.96-8.874667 2.730667-19.797333 2.730667-41.642666 2.730667s-32.768 0-41.642667-2.730667a61.866667 61.866667 0 0 1-40.96-40.96C213.333333 651.434667 213.333333 640.512 213.333333 618.666667zM426.666667 618.666667c0-21.845333 0-32.768 2.730666-41.642667 6.016-19.626667 21.333333-34.944 40.96-40.96 8.874667-2.730667 19.797333-2.730667 41.642667-2.730667s32.768 0 41.642667 2.730667c19.626667 6.016 34.944 21.333333 40.96 40.96 2.730667 8.874667 2.730667 19.797333 2.730666 41.642667s0 32.768-2.730666 41.642666c-6.016 19.626667-21.333333 34.944-40.96 40.96-8.874667 2.730667-19.797333 2.730667-41.642667 2.730667s-32.768 0-41.642667-2.730667a61.866667 61.866667 0 0 1-40.96-40.96C426.666667 651.434667 426.666667 640.512 426.666667 618.666667zM640 405.333333c0-21.845333 0-32.768 2.730667-41.642666 6.016-19.626667 21.333333-34.944 40.96-40.96 8.874667-2.730667 19.797333-2.730667 41.642666-2.730667s32.768 0 41.642667 2.730667c19.626667 6.016 34.944 21.333333 40.96 40.96 2.730667 8.874667 2.730667 19.797333 2.730667 41.642666s0 32.768-2.730667 41.642667c-6.016 19.626667-21.333333 34.944-40.96 40.96-8.874667 2.730667-19.797333 2.730667-41.642667 2.730667s-32.768 0-41.642666-2.730667a61.866667 61.866667 0 0 1-40.96-40.96C640 438.101333 640 427.178667 640 405.333333z" p-id="10614" fill="#1296db"></path><path d="M426.666667 832c0-19.84 0-29.781333 2.176-37.888a64 64 0 0 1 45.226666-45.226667c8.149333-2.218667 18.090667-2.218667 37.930667-2.218666s29.738667 0 37.888 2.176a64 64 0 0 1 45.226667 45.226666c2.218667 8.149333 2.218667 18.090667 2.218666 37.930667s0 29.781333-2.176 37.888a64 64 0 0 1-45.226666 45.226667c-8.149333 2.218667-18.090667 2.218667-37.930667 2.218666s-29.738667 0-37.888-2.176a64 64 0 0 1-45.226667-45.226666C426.666667 861.738667 426.666667 851.797333 426.666667 832zM213.333333 405.333333c0-19.84 0-29.738667 2.176-37.888a64 64 0 0 1 45.226667-45.226666C268.970667 320 278.869333 320 298.666667 320s29.738667 0 37.888 2.176a64 64 0 0 1 45.226666 45.226667C384 375.637333 384 385.536 384 405.333333s0 29.738667-2.176 37.888a64 64 0 0 1-45.226667 45.226667c-8.192 2.218667-18.090667 2.218667-37.930666 2.218667s-29.738667 0-37.888-2.176a64 64 0 0 1-45.226667-45.226667C213.333333 435.072 213.333333 425.130667 213.333333 405.333333zM213.333333 192c0-19.84 0-29.738667 2.176-37.888a64 64 0 0 1 45.226667-45.226667C268.970667 106.666667 278.869333 106.666667 298.666667 106.666667s29.738667 0 37.888 2.176a64 64 0 0 1 45.226666 45.226666C384 162.304 384 172.202667 384 192s0 29.738667-2.176 37.888a64 64 0 0 1-45.226667 45.226667C328.362667 277.333333 318.464 277.333333 298.666667 277.333333s-29.738667 0-37.888-2.176a64 64 0 0 1-45.226667-45.226666C213.333333 221.696 213.333333 211.797333 213.333333 192zM426.666667 405.333333c0-19.84 0-29.738667 2.176-37.888a64 64 0 0 1 45.226666-45.226666c8.149333-2.218667 18.090667-2.218667 37.930667-2.218667s29.738667 0 37.888 2.176a64 64 0 0 1 45.226667 45.226667c2.218667 8.192 2.218667 18.090667 2.218666 37.930666s0 29.738667-2.176 37.888a64 64 0 0 1-45.226666 45.226667c-8.149333 2.218667-18.090667 2.218667-37.930667 2.218667s-29.738667 0-37.888-2.176a64 64 0 0 1-45.226667-45.226667C426.666667 435.072 426.666667 425.130667 426.666667 405.333333zM426.666667 192c0-19.84 0-29.738667 2.176-37.888a64 64 0 0 1 45.226666-45.226667c8.149333-2.218667 18.090667-2.218667 37.930667-2.218666s29.738667 0 37.888 2.176a64 64 0 0 1 45.226667 45.226666c2.218667 8.192 2.218667 18.090667 2.218666 37.930667s0 29.738667-2.176 37.888a64 64 0 0 1-45.226666 45.226667c-8.149333 2.218667-18.090667 2.218667-37.930667 2.218666s-29.738667 0-37.888-2.176a64 64 0 0 1-45.226667-45.226666C426.666667 221.696 426.666667 211.797333 426.666667 192zM640 618.666667c0-19.84 0-29.738667 2.176-37.888a64 64 0 0 1 45.226667-45.226667c8.149333-2.218667 18.090667-2.218667 37.930666-2.218667s29.781333 0 37.888 2.176a64 64 0 0 1 45.226667 45.226667c2.218667 8.149333 2.218667 18.090667 2.218667 37.930667s0 29.738667-2.176 37.888a64 64 0 0 1-45.226667 45.226666c-8.149333 2.218667-18.090667 2.218667-37.930667 2.218667s-29.781333 0-37.888-2.176a64 64 0 0 1-45.226666-45.226667C640 648.405333 640 638.464 640 618.666667zM640 192c0-19.84 0-29.738667 2.176-37.888a64 64 0 0 1 45.226667-45.226667c8.149333-2.218667 18.090667-2.218667 37.930666-2.218666s29.781333 0 37.888 2.176a64 64 0 0 1 45.226667 45.226666c2.218667 8.192 2.218667 18.090667 2.218667 37.930667s0 29.738667-2.176 37.888a64 64 0 0 1-45.226667 45.226667c-8.149333 2.218667-18.090667 2.218667-37.930667 2.218666s-29.781333 0-37.888-2.176a64 64 0 0 1-45.226666-45.226666C640 221.696 640 211.797333 640 192z" p-id="10615" fill="#1296db"></path></svg>