<?xml version="1.0" standalone="no"?><!DOCTYPE svg PUBLIC "-//W3C//DTD SVG 1.1//EN" "http://www.w3.org/Graphics/SVG/1.1/DTD/svg11.dtd"><svg t="1752212865245" class="icon" viewBox="0 0 1024 1024" version="1.1" xmlns="http://www.w3.org/2000/svg" p-id="9657" xmlns:xlink="http://www.w3.org/1999/xlink" width="64" height="64"><path d="M512 512m-512 0a512 512 0 1 0 1024 0 512 512 0 1 0-1024 0Z" fill="#FFC0C0" p-id="9658"></path><path d="M512 605.090909a116.363636 116.363636 0 0 0 116.363636-116.363636V256a116.363636 116.363636 0 0 0-232.727272 0v232.727273a116.363636 116.363636 0 0 0 116.363636 116.363636z" fill="#FF4848" p-id="9659"></path><path d="M674.909091 442.181818v40.96a166.632727 166.632727 0 0 1-141.498182 167.330909A162.909091 162.909091 0 0 1 349.090909 488.727273v-46.545455a23.272727 23.272727 0 0 0-23.272727-23.272727 23.272727 23.272727 0 0 0-23.272727 23.272727v46.545455a209.454545 209.454545 0 0 0 195.025454 209.454545v93.090909h-69.818182a23.272727 23.272727 0 0 0-23.272727 23.272728 23.272727 23.272727 0 0 0 23.272727 23.272727h186.181818a23.272727 23.272727 0 0 0 23.272728-23.272727 23.272727 23.272727 0 0 0-23.272728-23.272728h-69.818181v-95.883636A209.454545 209.454545 0 0 0 721.454545 488.727273v-46.545455a23.272727 23.272727 0 0 0-23.272727-23.272727 23.272727 23.272727 0 0 0-23.272727 23.272727z" fill="#FF4848" p-id="9660"></path></svg>