<?xml version="1.0" standalone="no"?><!DOCTYPE svg PUBLIC "-//W3C//DTD SVG 1.1//EN" "http://www.w3.org/Graphics/SVG/1.1/DTD/svg11.dtd"><svg t="1752302396522" class="icon" viewBox="0 0 1024 1024" version="1.1" xmlns="http://www.w3.org/2000/svg" p-id="8676" xmlns:xlink="http://www.w3.org/1999/xlink" width="64" height="64"><path d="M909.632 825.6h-171.584c-29.12 0-55.232 28.928-55.232 28.928l-120.064 120.32a68.544 68.544 0 0 1-97.088 0L345.6 854.528s-32.128-28.928-59.648-28.928h-171.52c-44.288 0-81.92-45.504-81.92-88.832V79.808C32.512 36.48 67.584 1.28 110.848 1.28h802.368c43.264 0 78.336 35.2 78.336 78.528v657.024c-0.128 43.264-37.76 88.768-81.92 88.768zM274.496 315.328c-43.2 0-78.272 35.136-78.272 78.464 0 43.392 35.072 78.528 78.272 78.528 43.264 0 78.336-35.2 78.336-78.528s-35.072-78.464-78.336-78.464z m244.608 0c-43.264 0-78.272 35.136-78.272 78.464 0 43.392 35.008 78.528 78.272 78.528s78.336-35.2 78.336-78.528-35.072-78.464-78.336-78.464z m244.608 0c-43.264 0-78.272 35.136-78.272 78.464 0 43.392 35.008 78.528 78.272 78.528s78.336-35.2 78.336-78.528-35.072-78.464-78.336-78.464z" fill="#1AB04F" p-id="8677"></path></svg>